<svg width="24" height="24" viewBox="0 0 24 24" fill="none" xmlns="http://www.w3.org/2000/svg">
<path d="M12.862 5.05067C13.6987 5.05067 14.408 5.59733 14.6514 6.354C14.794 6.29933 14.9494 6.27 15.1107 6.27C15.8267 6.27 16.4067 6.85067 16.4067 7.566C16.4067 8.28133 15.826 8.862 15.1107 8.862C14.6934 8.862 14.322 8.66467 14.0847 8.358C13.756 8.64 13.3287 8.81067 12.8614 8.81067C12.272 8.81067 11.746 8.53867 11.4014 8.114C11.1187 8.44533 10.6974 8.656 10.2274 8.656C9.82469 8.656 9.45735 8.502 9.18269 8.24867C8.94669 8.57333 8.56469 8.78467 8.13269 8.78467C6.14535 8.78467 6.31869 6.192 8.13269 6.192C8.39802 6.192 8.64535 6.272 8.85069 6.40933C9.10602 5.90867 9.62669 5.56533 10.2274 5.56533C10.6214 5.56533 10.9814 5.71333 11.2547 5.956C11.5834 5.414 12.1807 5.05067 12.862 5.05067V5.05067ZM12.862 4C12.2147 4 11.5654 4.21467 11.0307 4.64267C10.1707 4.36267 9.20002 4.546 8.50069 5.17067C7.06869 4.94467 5.66669 5.87467 5.66669 7.61667C5.66669 8.91067 6.83869 9.83533 8.13269 9.83533C8.54135 9.83533 8.93869 9.72733 9.28669 9.53067C9.95202 9.78933 10.7047 9.764 11.3587 9.44667C12.136 9.912 13.1174 10.0013 13.9967 9.632C14.3334 9.814 14.7147 9.912 15.1114 9.912C16.4054 9.912 17.4587 8.85933 17.4587 7.56467C17.4587 6.31533 16.4774 5.29067 15.2454 5.22133C14.7334 4.51 13.8747 4 12.862 4V4ZM11 17.3333H9.66669V10.6187C10.0694 10.75 10.6527 10.736 11 10.5227V17.3333ZM16.3334 18.1493V10.566C15.9207 10.7227 15.4674 10.7927 15 10.7607V18.1493C15 18.3313 15.0127 18.508 15.056 18.6767H8.27735C8.32002 18.508 8.33335 18.3313 8.33335 18.1493V10.676C7.88602 10.7207 7.44602 10.668 7.02002 10.5213V18.1493C7.02002 18.592 6.77602 18.9513 6.33335 18.9513V20H17V18.9513C16.5574 18.9513 16.3334 18.592 16.3334 18.1493ZM18.234 10H17V11.3333H17.9947C19.6054 11.3333 19.1034 14.2833 17 15.5033V16.9433C19.1394 16.1347 20.3334 13.994 20.3334 12.3013C20.3334 11.0227 19.6634 10 18.234 10V10Z" fill="#8C6F5E"/>
<circle cx="12" cy="12" r="11" stroke="#8C6F5E" stroke-width="2"/>
</svg>
