<svg width="48" height="48" viewBox="0 0 48 48" fill="none" xmlns="http://www.w3.org/2000/svg">
<path fill-rule="evenodd" clip-rule="evenodd" d="M24 0C37.246 0 48 10.754 48 24C48 37.246 37.246 48 24 48C10.754 48 0 37.246 0 24C0 10.754 10.754 0 24 0ZM37.994 40.972C42.882 36.934 46 30.828 46 24C46 11.858 36.142 2 24 2C11.858 2 2 11.858 2 24C2 32.54 6.878 39.95 13.996 43.596V37.14C13.996 35.758 13.114 35.306 11.228 33.794C9.832 32.674 8.874 30.928 9.05 29.15C9.554 24.076 10.774 14 10.774 14L12.592 14.006L11.398 26H13.98L13.99 14H15.99L15.986 26H17.992L17.99 14H19.99L19.998 26L22.678 26.004L21.328 14H23.102C23.106 14.022 24.452 24.016 25.004 29.1C25.2 30.904 24.186 32.684 22.762 33.812C20.862 35.314 19.998 35.746 19.998 37.15V45.636C21.296 45.876 22.634 46 24 46C26.818 46 29.512 45.47 31.988 44.502L31.99 38H27.056C28.66 24.008 33.262 14 36.376 14C37.27 14 37.984 14.714 37.99 15.702C38.006 18.03 37.998 29.33 37.994 40.972ZM22.868 28H11.178C11.044 29.284 10.658 30.774 12.48 32.234C14.356 33.742 15.996 34.696 15.996 37.14V44.496C16.648 44.752 17.316 44.976 17.998 45.17V37.15C17.998 34.676 19.62 33.75 21.52 32.244C23.408 30.75 23.02 29.316 22.868 28ZM35.99 42.444L35.994 16.386C33.714 19.09 30.868 24.798 29.374 36.004H33.99L33.988 43.604C34.678 43.252 35.346 42.864 35.99 42.444Z" fill="#8C362E"/>
</svg>
